<svg xmlns="http://www.w3.org/2000/svg" xmlns:xlink="http://www.w3.org/1999/xlink" width="500" zoomAndPan="magnify" viewBox="0 0 375 374.999991" height="500" preserveAspectRatio="xMidYMid meet" version="1.0"><defs><g/><clipPath id="70b2d00cc3"><path d="M 175 179 L 200 179 L 200 189.902344 L 175 189.902344 Z M 175 179 " clip-rule="nonzero"/></clipPath><clipPath id="040531869c"><path d="M 120 123.152344 L 254.867188 123.152344 L 254.867188 189.902344 L 120 189.902344 Z M 120 123.152344 " clip-rule="nonzero"/></clipPath><clipPath id="a74eb576c3"><path d="M 175.53125 178.746094 L 199.414062 178.746094 L 199.414062 202.628906 L 175.53125 202.628906 Z M 175.53125 178.746094 " clip-rule="nonzero"/></clipPath><clipPath id="26da790267"><path d="M 187.472656 178.746094 C 180.878906 178.746094 175.53125 184.09375 175.53125 190.6875 C 175.53125 197.28125 180.878906 202.628906 187.472656 202.628906 C 194.066406 202.628906 199.414062 197.28125 199.414062 190.6875 C 199.414062 184.09375 194.066406 178.746094 187.472656 178.746094 Z M 187.472656 178.746094 " clip-rule="nonzero"/></clipPath></defs><rect x="-37.5" width="450" fill="#ffffff" y="-37.499999" height="449.999989" fill-opacity="1"/><rect x="-37.5" width="450" fill="#ffffff" y="-37.499999" height="449.999989" fill-opacity="1"/><g clip-path="url(#70b2d00cc3)"><path fill="#213489" d="M 187.445312 202.324219 C 186.683594 202.324219 185.925781 202.25 185.179688 202.101562 C 184.433594 201.953125 183.707031 201.734375 183.003906 201.441406 C 182.296875 201.148438 181.628906 200.792969 180.996094 200.367188 C 180.359375 199.945312 179.773438 199.464844 179.234375 198.925781 C 178.695312 198.386719 178.214844 197.800781 177.792969 197.164062 C 177.367188 196.53125 177.011719 195.863281 176.71875 195.160156 C 176.425781 194.453125 176.207031 193.726562 176.058594 192.980469 C 175.910156 192.234375 175.835938 191.476562 175.835938 190.714844 C 175.835938 189.953125 175.910156 189.199219 176.058594 188.449219 C 176.207031 187.703125 176.425781 186.976562 176.71875 186.273438 C 177.011719 185.570312 177.367188 184.898438 177.792969 184.265625 C 178.214844 183.632812 178.695312 183.046875 179.234375 182.507812 C 179.773438 181.96875 180.359375 181.484375 180.996094 181.0625 C 181.628906 180.640625 182.296875 180.28125 183.003906 179.988281 C 183.707031 179.699219 184.433594 179.476562 185.179688 179.328125 C 185.925781 179.179688 186.683594 179.105469 187.445312 179.105469 C 188.207031 179.105469 188.960938 179.179688 189.710938 179.328125 C 190.457031 179.476562 191.183594 179.699219 191.886719 179.988281 C 192.59375 180.28125 193.261719 180.640625 193.894531 181.0625 C 194.527344 181.484375 195.113281 181.96875 195.652344 182.507812 C 196.191406 183.046875 196.675781 183.632812 197.097656 184.265625 C 197.523438 184.898438 197.878906 185.570312 198.171875 186.273438 C 198.460938 186.976562 198.683594 187.703125 198.832031 188.449219 C 198.980469 189.199219 199.054688 189.953125 199.054688 190.714844 C 199.054688 191.476562 198.980469 192.234375 198.832031 192.980469 C 198.683594 193.726562 198.460938 194.453125 198.171875 195.160156 C 197.878906 195.863281 197.523438 196.53125 197.097656 197.164062 C 196.675781 197.800781 196.191406 198.386719 195.652344 198.925781 C 195.113281 199.464844 194.527344 199.945312 193.894531 200.367188 C 193.261719 200.792969 192.59375 201.148438 191.886719 201.441406 C 191.183594 201.734375 190.457031 201.953125 189.710938 202.101562 C 188.960938 202.25 188.207031 202.324219 187.445312 202.324219 Z M 187.445312 202.324219 " fill-opacity="1" fill-rule="nonzero"/></g><g clip-path="url(#040531869c)"><path fill="#213489" d="M 198.953125 255.332031 L 201.992188 239.101562 C 205.277344 238.117188 208.425781 236.824219 211.386719 235.222656 L 225.113281 244.613281 C 226.382812 245.480469 228.292969 245.304688 229.382812 244.214844 L 240.960938 232.636719 C 242.050781 231.546875 242.226562 229.640625 241.359375 228.371094 L 231.964844 214.640625 C 233.609375 211.59375 234.925781 208.347656 235.921875 204.964844 L 252.0625 201.9375 C 253.574219 201.652344 254.800781 200.175781 254.800781 198.636719 L 254.800781 182.261719 C 254.800781 180.722656 253.574219 179.246094 252.0625 178.960938 L 235.761719 175.90625 C 234.769531 172.660156 233.476562 169.546875 231.882812 166.617188 L 241.160156 153.058594 C 242.027344 151.789062 241.847656 149.875 240.761719 148.789062 L 229.179688 137.210938 C 228.089844 136.121094 226.183594 135.945312 224.914062 136.8125 L 211.273438 146.144531 C 208.339844 144.574219 205.230469 143.300781 201.992188 142.328125 L 198.953125 126.101562 C 198.664062 124.589844 197.191406 123.363281 195.648438 123.363281 L 179.277344 123.363281 C 177.734375 123.363281 176.261719 124.589844 175.972656 126.101562 L 172.933594 142.316406 C 169.625 143.304688 166.449219 144.609375 163.464844 146.21875 L 149.972656 136.992188 C 148.703125 136.121094 146.792969 136.300781 145.707031 137.390625 L 134.128906 148.964844 C 133.039062 150.054688 132.863281 151.964844 133.730469 153.234375 L 142.960938 166.71875 C 141.390625 169.621094 140.113281 172.699219 139.128906 175.910156 L 122.824219 178.964844 C 121.3125 179.253906 120.089844 180.726562 120.089844 182.269531 L 120.089844 198.640625 C 120.089844 200.183594 121.3125 201.65625 122.824219 201.945312 L 138.972656 204.96875 C 139.957031 208.316406 141.257812 211.527344 142.875 214.546875 L 133.53125 228.207031 C 132.660156 229.476562 132.839844 231.386719 133.929688 232.472656 L 145.503906 244.050781 C 146.59375 245.140625 148.5 245.316406 149.769531 244.449219 L 163.351562 235.15625 C 166.371094 236.796875 169.582031 238.117188 172.933594 239.121094 L 175.972656 255.332031 C 176.261719 256.84375 177.734375 258.070312 179.277344 258.070312 L 195.648438 258.070312 C 197.191406 258.070312 198.664062 256.839844 198.953125 255.332031 Z M 159.347656 190.714844 C 159.347656 175.203125 171.925781 162.625 187.449219 162.625 C 202.957031 162.625 215.539062 175.203125 215.539062 190.714844 C 215.539062 206.234375 202.957031 218.816406 187.449219 218.816406 C 171.925781 218.816406 159.347656 206.230469 159.347656 190.714844 Z M 159.347656 190.714844 " fill-opacity="1" fill-rule="nonzero"/></g><g fill="#213489" fill-opacity="1"><g transform="translate(134.849421, 229.809419)"><g><path d="M 15.078125 -10.03125 L 19.421875 -10.03125 L 19.421875 -2.34375 C 18.347656 -1.59375 17.054688 -0.976562 15.546875 -0.5 C 14.035156 -0.0195312 12.59375 0.21875 11.21875 0.21875 C 8.207031 0.21875 5.695312 -0.738281 3.6875 -2.65625 C 1.675781 -4.582031 0.671875 -6.984375 0.671875 -9.859375 C 0.671875 -12.722656 1.703125 -15.113281 3.765625 -17.03125 C 5.835938 -18.945312 8.4375 -19.90625 11.5625 -19.90625 C 13.019531 -19.90625 14.472656 -19.640625 15.921875 -19.109375 C 17.367188 -18.585938 18.601562 -17.875 19.625 -16.96875 L 16.796875 -13.5625 C 16.085938 -14.21875 15.257812 -14.738281 14.3125 -15.125 C 13.375 -15.507812 12.445312 -15.703125 11.53125 -15.703125 C 9.914062 -15.703125 8.554688 -15.140625 7.453125 -14.015625 C 6.359375 -12.898438 5.8125 -11.515625 5.8125 -9.859375 C 5.8125 -8.191406 6.363281 -6.789062 7.46875 -5.65625 C 8.570312 -4.53125 9.941406 -3.96875 11.578125 -3.96875 C 12.628906 -3.96875 13.796875 -4.289062 15.078125 -4.9375 Z M 15.078125 -10.03125 "/></g></g></g><g fill="#213489" fill-opacity="1"><g transform="translate(158.833977, 229.809419)"><g><path d="M 15.078125 -3.640625 L 6.453125 -3.640625 L 5.015625 0 L -0.140625 0 L 8.375 -19.734375 L 13.53125 -19.734375 L 21.84375 0 L 16.484375 0 Z M 13.609375 -7.4375 L 10.796875 -14.734375 L 7.921875 -7.4375 Z M 13.609375 -7.4375 "/></g></g></g><g fill="#213489" fill-opacity="1"><g transform="translate(183.579484, 229.809419)"><g><path d="M 6.984375 0 L 1.96875 0 L 1.96875 -19.734375 L 6.984375 -19.734375 Z M 6.984375 0 "/></g></g></g><g fill="#213489" fill-opacity="1"><g transform="translate(195.586023, 229.809419)"><g><path d="M 1.96875 -19.734375 L 11.296875 -19.734375 C 13.515625 -19.734375 15.273438 -19.285156 16.578125 -18.390625 C 17.890625 -17.492188 18.546875 -16.296875 18.546875 -14.796875 C 18.546875 -13.765625 18.242188 -12.859375 17.640625 -12.078125 C 17.046875 -11.296875 16.222656 -10.753906 15.171875 -10.453125 C 16.410156 -10.210938 17.394531 -9.640625 18.125 -8.734375 C 18.851562 -7.835938 19.21875 -6.75 19.21875 -5.46875 C 19.21875 -3.789062 18.535156 -2.457031 17.171875 -1.46875 C 15.816406 -0.488281 13.972656 0 11.640625 0 L 1.96875 0 Z M 6.96875 -15.890625 L 6.96875 -11.84375 L 11.015625 -11.84375 C 11.753906 -11.84375 12.335938 -12.023438 12.765625 -12.390625 C 13.203125 -12.753906 13.421875 -13.253906 13.421875 -13.890625 C 13.421875 -14.515625 13.203125 -15.003906 12.765625 -15.359375 C 12.335938 -15.710938 11.753906 -15.890625 11.015625 -15.890625 Z M 6.96875 -8.234375 L 6.96875 -3.859375 L 11.015625 -3.859375 C 11.960938 -3.859375 12.703125 -4.054688 13.234375 -4.453125 C 13.765625 -4.847656 14.03125 -5.394531 14.03125 -6.09375 C 14.03125 -6.75 13.765625 -7.269531 13.234375 -7.65625 C 12.703125 -8.039062 11.960938 -8.234375 11.015625 -8.234375 Z M 6.96875 -8.234375 "/></g></g></g><g fill="#213489" fill-opacity="1"><g transform="translate(218.781439, 229.809419)"><g><path d="M 19.734375 -19.734375 L 19.734375 -8.28125 C 19.734375 -5.675781 18.925781 -3.609375 17.3125 -2.078125 C 15.695312 -0.546875 13.503906 0.21875 10.734375 0.21875 C 7.953125 0.21875 5.738281 -0.546875 4.09375 -2.078125 C 2.457031 -3.609375 1.640625 -5.675781 1.640625 -8.28125 L 1.640625 -19.734375 L 6.65625 -19.734375 L 6.65625 -8.28125 C 6.65625 -6.96875 7.035156 -5.921875 7.796875 -5.140625 C 8.554688 -4.359375 9.546875 -3.96875 10.765625 -3.96875 C 11.972656 -3.96875 12.9375 -4.351562 13.65625 -5.125 C 14.375 -5.894531 14.734375 -6.945312 14.734375 -8.28125 L 14.734375 -19.734375 Z M 19.734375 -19.734375 "/></g></g></g><g fill="#09aa61" fill-opacity="1"><g transform="translate(61.081465, 261.622718)"><g><path d="M 4.28125 0.171875 C 3.519531 0.171875 2.785156 0.0664062 2.078125 -0.140625 C 1.378906 -0.347656 0.816406 -0.613281 0.390625 -0.9375 L 1.140625 -2.609375 C 1.546875 -2.304688 2.03125 -2.0625 2.59375 -1.875 C 3.164062 -1.695312 3.734375 -1.609375 4.296875 -1.609375 C 4.921875 -1.609375 5.382812 -1.703125 5.6875 -1.890625 C 5.988281 -2.078125 6.140625 -2.328125 6.140625 -2.640625 C 6.140625 -2.867188 6.050781 -3.054688 5.875 -3.203125 C 5.695312 -3.359375 5.46875 -3.476562 5.1875 -3.5625 C 4.90625 -3.65625 4.53125 -3.757812 4.0625 -3.875 C 3.332031 -4.039062 2.734375 -4.210938 2.265625 -4.390625 C 1.804688 -4.566406 1.410156 -4.84375 1.078125 -5.21875 C 0.742188 -5.601562 0.578125 -6.113281 0.578125 -6.75 C 0.578125 -7.3125 0.726562 -7.816406 1.03125 -8.265625 C 1.332031 -8.710938 1.785156 -9.066406 2.390625 -9.328125 C 2.992188 -9.597656 3.734375 -9.734375 4.609375 -9.734375 C 5.222656 -9.734375 5.820312 -9.660156 6.40625 -9.515625 C 6.988281 -9.367188 7.5 -9.160156 7.9375 -8.890625 L 7.25 -7.203125 C 6.363281 -7.703125 5.476562 -7.953125 4.59375 -7.953125 C 3.976562 -7.953125 3.519531 -7.851562 3.21875 -7.65625 C 2.925781 -7.457031 2.78125 -7.191406 2.78125 -6.859375 C 2.78125 -6.535156 2.945312 -6.289062 3.28125 -6.125 C 3.625 -5.96875 4.148438 -5.8125 4.859375 -5.65625 C 5.585938 -5.488281 6.179688 -5.316406 6.640625 -5.140625 C 7.109375 -4.960938 7.507812 -4.6875 7.84375 -4.3125 C 8.175781 -3.945312 8.34375 -3.441406 8.34375 -2.796875 C 8.34375 -2.253906 8.1875 -1.753906 7.875 -1.296875 C 7.570312 -0.847656 7.113281 -0.488281 6.5 -0.21875 C 5.894531 0.0390625 5.15625 0.171875 4.28125 0.171875 Z M 4.28125 0.171875 "/></g></g></g><g fill="#09aa61" fill-opacity="1"><g transform="translate(74.751136, 261.622718)"><g><path d="M 8.546875 -1.78125 L 8.546875 0 L 1.140625 0 L 1.140625 -9.578125 L 8.375 -9.578125 L 8.375 -7.796875 L 3.34375 -7.796875 L 3.34375 -5.71875 L 7.78125 -5.71875 L 7.78125 -4 L 3.34375 -4 L 3.34375 -1.78125 Z M 8.546875 -1.78125 "/></g></g></g><g fill="#09aa61" fill-opacity="1"><g transform="translate(88.871727, 261.622718)"><g><path d="M 7.234375 0 L 5.390625 -2.671875 L 3.34375 -2.671875 L 3.34375 0 L 1.140625 0 L 1.140625 -9.578125 L 5.28125 -9.578125 C 6.125 -9.578125 6.859375 -9.429688 7.484375 -9.140625 C 8.109375 -8.859375 8.585938 -8.457031 8.921875 -7.9375 C 9.265625 -7.425781 9.4375 -6.8125 9.4375 -6.09375 C 9.4375 -5.382812 9.265625 -4.769531 8.921875 -4.25 C 8.578125 -3.738281 8.09375 -3.347656 7.46875 -3.078125 L 9.609375 0 Z M 7.1875 -6.09375 C 7.1875 -6.632812 7.015625 -7.046875 6.671875 -7.328125 C 6.328125 -7.617188 5.820312 -7.765625 5.15625 -7.765625 L 3.34375 -7.765625 L 3.34375 -4.4375 L 5.15625 -4.4375 C 5.820312 -4.4375 6.328125 -4.582031 6.671875 -4.875 C 7.015625 -5.164062 7.1875 -5.570312 7.1875 -6.09375 Z M 7.1875 -6.09375 "/></g></g></g><g fill="#09aa61" fill-opacity="1"><g transform="translate(103.86682, 261.622718)"><g><path d="M 10.34375 -9.578125 L 6.1875 0 L 4 0 L -0.125 -9.578125 L 2.265625 -9.578125 L 5.1875 -2.734375 L 8.140625 -9.578125 Z M 10.34375 -9.578125 "/></g></g></g><g fill="#09aa61" fill-opacity="1"><g transform="translate(119.012205, 261.622718)"><g><path d="M 1.140625 -9.578125 L 3.34375 -9.578125 L 3.34375 0 L 1.140625 0 Z M 1.140625 -9.578125 "/></g></g></g><g fill="#09aa61" fill-opacity="1"><g transform="translate(128.446015, 261.622718)"><g><path d="M 5.71875 0.171875 C 4.738281 0.171875 3.851562 -0.0390625 3.0625 -0.46875 C 2.28125 -0.894531 1.660156 -1.484375 1.203125 -2.234375 C 0.753906 -2.984375 0.53125 -3.832031 0.53125 -4.78125 C 0.53125 -5.726562 0.753906 -6.578125 1.203125 -7.328125 C 1.660156 -8.085938 2.28125 -8.675781 3.0625 -9.09375 C 3.851562 -9.519531 4.742188 -9.734375 5.734375 -9.734375 C 6.554688 -9.734375 7.300781 -9.585938 7.96875 -9.296875 C 8.644531 -9.003906 9.210938 -8.585938 9.671875 -8.046875 L 8.25 -6.734375 C 7.601562 -7.472656 6.800781 -7.84375 5.84375 -7.84375 C 5.25 -7.84375 4.71875 -7.710938 4.25 -7.453125 C 3.789062 -7.191406 3.429688 -6.828125 3.171875 -6.359375 C 2.910156 -5.898438 2.78125 -5.375 2.78125 -4.78125 C 2.78125 -4.1875 2.910156 -3.65625 3.171875 -3.1875 C 3.429688 -2.726562 3.789062 -2.367188 4.25 -2.109375 C 4.71875 -1.847656 5.25 -1.71875 5.84375 -1.71875 C 6.800781 -1.71875 7.601562 -2.097656 8.25 -2.859375 L 9.671875 -1.546875 C 9.210938 -0.992188 8.644531 -0.566406 7.96875 -0.265625 C 7.289062 0.0234375 6.539062 0.171875 5.71875 0.171875 Z M 4.984375 3.171875 C 4.742188 3.171875 4.507812 3.144531 4.28125 3.09375 C 4.050781 3.039062 3.859375 2.972656 3.703125 2.890625 L 4.03125 1.96875 C 4.320312 2.101562 4.617188 2.171875 4.921875 2.171875 C 5.398438 2.171875 5.640625 2.023438 5.640625 1.734375 C 5.640625 1.472656 5.414062 1.34375 4.96875 1.34375 L 4.5 1.34375 L 4.859375 -0.109375 L 5.984375 -0.109375 L 5.796875 0.6875 C 6.203125 0.726562 6.5 0.851562 6.6875 1.0625 C 6.882812 1.269531 6.984375 1.519531 6.984375 1.8125 C 6.984375 2.238281 6.800781 2.570312 6.4375 2.8125 C 6.070312 3.050781 5.585938 3.171875 4.984375 3.171875 Z M 4.984375 3.171875 "/></g></g></g><g fill="#09aa61" fill-opacity="1"><g transform="translate(143.413776, 261.622718)"><g><path d="M 5.765625 0.171875 C 4.773438 0.171875 3.878906 -0.0390625 3.078125 -0.46875 C 2.285156 -0.90625 1.660156 -1.5 1.203125 -2.25 C 0.753906 -3 0.53125 -3.84375 0.53125 -4.78125 C 0.53125 -5.71875 0.753906 -6.5625 1.203125 -7.3125 C 1.660156 -8.070312 2.285156 -8.664062 3.078125 -9.09375 C 3.878906 -9.519531 4.773438 -9.734375 5.765625 -9.734375 C 6.765625 -9.734375 7.660156 -9.519531 8.453125 -9.09375 C 9.242188 -8.664062 9.863281 -8.070312 10.3125 -7.3125 C 10.769531 -6.5625 11 -5.71875 11 -4.78125 C 11 -3.84375 10.769531 -3 10.3125 -2.25 C 9.863281 -1.5 9.242188 -0.90625 8.453125 -0.46875 C 7.660156 -0.0390625 6.765625 0.171875 5.765625 0.171875 Z M 5.765625 -1.71875 C 6.335938 -1.71875 6.847656 -1.847656 7.296875 -2.109375 C 7.753906 -2.367188 8.113281 -2.726562 8.375 -3.1875 C 8.632812 -3.65625 8.765625 -4.1875 8.765625 -4.78125 C 8.765625 -5.375 8.632812 -5.898438 8.375 -6.359375 C 8.113281 -6.828125 7.753906 -7.191406 7.296875 -7.453125 C 6.847656 -7.710938 6.335938 -7.84375 5.765625 -7.84375 C 5.203125 -7.84375 4.691406 -7.710938 4.234375 -7.453125 C 3.785156 -7.191406 3.429688 -6.828125 3.171875 -6.359375 C 2.910156 -5.898438 2.78125 -5.375 2.78125 -4.78125 C 2.78125 -4.1875 2.910156 -3.65625 3.171875 -3.1875 C 3.429688 -2.726562 3.785156 -2.367188 4.234375 -2.109375 C 4.691406 -1.847656 5.203125 -1.71875 5.765625 -1.71875 Z M 5.765625 -1.71875 "/></g></g></g><g fill="#09aa61" fill-opacity="1"><g transform="translate(159.898251, 261.622718)"><g><path d="M 4.28125 0.171875 C 3.519531 0.171875 2.785156 0.0664062 2.078125 -0.140625 C 1.378906 -0.347656 0.816406 -0.613281 0.390625 -0.9375 L 1.140625 -2.609375 C 1.546875 -2.304688 2.03125 -2.0625 2.59375 -1.875 C 3.164062 -1.695312 3.734375 -1.609375 4.296875 -1.609375 C 4.921875 -1.609375 5.382812 -1.703125 5.6875 -1.890625 C 5.988281 -2.078125 6.140625 -2.328125 6.140625 -2.640625 C 6.140625 -2.867188 6.050781 -3.054688 5.875 -3.203125 C 5.695312 -3.359375 5.46875 -3.476562 5.1875 -3.5625 C 4.90625 -3.65625 4.53125 -3.757812 4.0625 -3.875 C 3.332031 -4.039062 2.734375 -4.210938 2.265625 -4.390625 C 1.804688 -4.566406 1.410156 -4.84375 1.078125 -5.21875 C 0.742188 -5.601562 0.578125 -6.113281 0.578125 -6.75 C 0.578125 -7.3125 0.726562 -7.816406 1.03125 -8.265625 C 1.332031 -8.710938 1.785156 -9.066406 2.390625 -9.328125 C 2.992188 -9.597656 3.734375 -9.734375 4.609375 -9.734375 C 5.222656 -9.734375 5.820312 -9.660156 6.40625 -9.515625 C 6.988281 -9.367188 7.5 -9.160156 7.9375 -8.890625 L 7.25 -7.203125 C 6.363281 -7.703125 5.476562 -7.953125 4.59375 -7.953125 C 3.976562 -7.953125 3.519531 -7.851562 3.21875 -7.65625 C 2.925781 -7.457031 2.78125 -7.191406 2.78125 -6.859375 C 2.78125 -6.535156 2.945312 -6.289062 3.28125 -6.125 C 3.625 -5.96875 4.148438 -5.8125 4.859375 -5.65625 C 5.585938 -5.488281 6.179688 -5.316406 6.640625 -5.140625 C 7.109375 -4.960938 7.507812 -4.6875 7.84375 -4.3125 C 8.175781 -3.945312 8.34375 -3.441406 8.34375 -2.796875 C 8.34375 -2.253906 8.1875 -1.753906 7.875 -1.296875 C 7.570312 -0.847656 7.113281 -0.488281 6.5 -0.21875 C 5.894531 0.0390625 5.15625 0.171875 4.28125 0.171875 Z M 4.28125 0.171875 "/></g></g></g><g fill="#09aa61" fill-opacity="1"><g transform="translate(173.56792, 261.622718)"><g/></g></g><g fill="#09aa61" fill-opacity="1"><g transform="translate(182.386851, 261.622718)"><g><path d="M 1.140625 -9.578125 L 3.34375 -9.578125 L 3.34375 0 L 1.140625 0 Z M 1.140625 -9.578125 "/></g></g></g><g fill="#09aa61" fill-opacity="1"><g transform="translate(191.820662, 261.622718)"><g><path d="M 9.90625 -9.578125 L 9.90625 0 L 8.09375 0 L 3.328125 -5.8125 L 3.328125 0 L 1.140625 0 L 1.140625 -9.578125 L 2.96875 -9.578125 L 7.71875 -3.765625 L 7.71875 -9.578125 Z M 9.90625 -9.578125 "/></g></g></g><g fill="#09aa61" fill-opacity="1"><g transform="translate(207.813218, 261.622718)"><g><path d="M 1.140625 -9.578125 L 5.484375 -9.578125 C 6.523438 -9.578125 7.441406 -9.375 8.234375 -8.96875 C 9.035156 -8.570312 9.65625 -8.015625 10.09375 -7.296875 C 10.539062 -6.578125 10.765625 -5.738281 10.765625 -4.78125 C 10.765625 -3.820312 10.539062 -2.984375 10.09375 -2.265625 C 9.65625 -1.546875 9.035156 -0.988281 8.234375 -0.59375 C 7.441406 -0.195312 6.523438 0 5.484375 0 L 1.140625 0 Z M 5.375 -1.8125 C 6.332031 -1.8125 7.09375 -2.078125 7.65625 -2.609375 C 8.226562 -3.148438 8.515625 -3.875 8.515625 -4.78125 C 8.515625 -5.695312 8.226562 -6.421875 7.65625 -6.953125 C 7.09375 -7.484375 6.332031 -7.75 5.375 -7.75 L 3.34375 -7.75 L 3.34375 -1.8125 Z M 5.375 -1.8125 "/></g></g></g><g fill="#09aa61" fill-opacity="1"><g transform="translate(224.051731, 261.622718)"><g><path d="M 5.390625 0.171875 C 4.023438 0.171875 2.957031 -0.207031 2.1875 -0.96875 C 1.425781 -1.726562 1.046875 -2.8125 1.046875 -4.21875 L 1.046875 -9.578125 L 3.265625 -9.578125 L 3.265625 -4.296875 C 3.265625 -2.578125 3.976562 -1.71875 5.40625 -1.71875 C 6.09375 -1.71875 6.617188 -1.925781 6.984375 -2.34375 C 7.347656 -2.757812 7.53125 -3.410156 7.53125 -4.296875 L 7.53125 -9.578125 L 9.71875 -9.578125 L 9.71875 -4.21875 C 9.71875 -2.8125 9.335938 -1.726562 8.578125 -0.96875 C 7.816406 -0.207031 6.753906 0.171875 5.390625 0.171875 Z M 5.390625 0.171875 "/></g></g></g><g fill="#09aa61" fill-opacity="1"><g transform="translate(239.771014, 261.622718)"><g><path d="M 4.28125 0.171875 C 3.519531 0.171875 2.785156 0.0664062 2.078125 -0.140625 C 1.378906 -0.347656 0.816406 -0.613281 0.390625 -0.9375 L 1.140625 -2.609375 C 1.546875 -2.304688 2.03125 -2.0625 2.59375 -1.875 C 3.164062 -1.695312 3.734375 -1.609375 4.296875 -1.609375 C 4.921875 -1.609375 5.382812 -1.703125 5.6875 -1.890625 C 5.988281 -2.078125 6.140625 -2.328125 6.140625 -2.640625 C 6.140625 -2.867188 6.050781 -3.054688 5.875 -3.203125 C 5.695312 -3.359375 5.46875 -3.476562 5.1875 -3.5625 C 4.90625 -3.65625 4.53125 -3.757812 4.0625 -3.875 C 3.332031 -4.039062 2.734375 -4.210938 2.265625 -4.390625 C 1.804688 -4.566406 1.410156 -4.84375 1.078125 -5.21875 C 0.742188 -5.601562 0.578125 -6.113281 0.578125 -6.75 C 0.578125 -7.3125 0.726562 -7.816406 1.03125 -8.265625 C 1.332031 -8.710938 1.785156 -9.066406 2.390625 -9.328125 C 2.992188 -9.597656 3.734375 -9.734375 4.609375 -9.734375 C 5.222656 -9.734375 5.820312 -9.660156 6.40625 -9.515625 C 6.988281 -9.367188 7.5 -9.160156 7.9375 -8.890625 L 7.25 -7.203125 C 6.363281 -7.703125 5.476562 -7.953125 4.59375 -7.953125 C 3.976562 -7.953125 3.519531 -7.851562 3.21875 -7.65625 C 2.925781 -7.457031 2.78125 -7.191406 2.78125 -6.859375 C 2.78125 -6.535156 2.945312 -6.289062 3.28125 -6.125 C 3.625 -5.96875 4.148438 -5.8125 4.859375 -5.65625 C 5.585938 -5.488281 6.179688 -5.316406 6.640625 -5.140625 C 7.109375 -4.960938 7.507812 -4.6875 7.84375 -4.3125 C 8.175781 -3.945312 8.34375 -3.441406 8.34375 -2.796875 C 8.34375 -2.253906 8.1875 -1.753906 7.875 -1.296875 C 7.570312 -0.847656 7.113281 -0.488281 6.5 -0.21875 C 5.894531 0.0390625 5.15625 0.171875 4.28125 0.171875 Z M 4.28125 0.171875 "/></g></g></g><g fill="#09aa61" fill-opacity="1"><g transform="translate(253.440683, 261.622718)"><g><path d="M 3.125 -7.765625 L 0.0625 -7.765625 L 0.0625 -9.578125 L 8.390625 -9.578125 L 8.390625 -7.765625 L 5.328125 -7.765625 L 5.328125 0 L 3.125 0 Z M 3.125 -7.765625 "/></g></g></g><g fill="#09aa61" fill-opacity="1"><g transform="translate(266.837068, 261.622718)"><g><path d="M 7.234375 0 L 5.390625 -2.671875 L 3.34375 -2.671875 L 3.34375 0 L 1.140625 0 L 1.140625 -9.578125 L 5.28125 -9.578125 C 6.125 -9.578125 6.859375 -9.429688 7.484375 -9.140625 C 8.109375 -8.859375 8.585938 -8.457031 8.921875 -7.9375 C 9.265625 -7.425781 9.4375 -6.8125 9.4375 -6.09375 C 9.4375 -5.382812 9.265625 -4.769531 8.921875 -4.25 C 8.578125 -3.738281 8.09375 -3.347656 7.46875 -3.078125 L 9.609375 0 Z M 7.1875 -6.09375 C 7.1875 -6.632812 7.015625 -7.046875 6.671875 -7.328125 C 6.328125 -7.617188 5.820312 -7.765625 5.15625 -7.765625 L 3.34375 -7.765625 L 3.34375 -4.4375 L 5.15625 -4.4375 C 5.820312 -4.4375 6.328125 -4.582031 6.671875 -4.875 C 7.015625 -5.164062 7.1875 -5.570312 7.1875 -6.09375 Z M 7.1875 -6.09375 "/></g></g></g><g fill="#09aa61" fill-opacity="1"><g transform="translate(281.832168, 261.622718)"><g><path d="M 1.140625 -9.578125 L 3.34375 -9.578125 L 3.34375 0 L 1.140625 0 Z M 1.140625 -9.578125 "/></g></g></g><g fill="#09aa61" fill-opacity="1"><g transform="translate(291.26599, 261.622718)"><g><path d="M 7.4375 -2.046875 L 3 -2.046875 L 2.140625 0 L -0.125 0 L 4.140625 -9.578125 L 6.328125 -9.578125 L 10.609375 0 L 8.28125 0 Z M 6.734375 -3.734375 L 5.21875 -7.390625 L 3.703125 -3.734375 Z M 6.734375 -3.734375 "/></g></g></g><g fill="#09aa61" fill-opacity="1"><g transform="translate(306.68466, 261.622718)"><g><path d="M 1.140625 -9.578125 L 3.34375 -9.578125 L 3.34375 0 L 1.140625 0 Z M 1.140625 -9.578125 "/></g></g></g><g fill="#09aa61" fill-opacity="1"><g transform="translate(316.118482, 261.622718)"><g><path d="M 4.28125 0.171875 C 3.519531 0.171875 2.785156 0.0664062 2.078125 -0.140625 C 1.378906 -0.347656 0.816406 -0.613281 0.390625 -0.9375 L 1.140625 -2.609375 C 1.546875 -2.304688 2.03125 -2.0625 2.59375 -1.875 C 3.164062 -1.695312 3.734375 -1.609375 4.296875 -1.609375 C 4.921875 -1.609375 5.382812 -1.703125 5.6875 -1.890625 C 5.988281 -2.078125 6.140625 -2.328125 6.140625 -2.640625 C 6.140625 -2.867188 6.050781 -3.054688 5.875 -3.203125 C 5.695312 -3.359375 5.46875 -3.476562 5.1875 -3.5625 C 4.90625 -3.65625 4.53125 -3.757812 4.0625 -3.875 C 3.332031 -4.039062 2.734375 -4.210938 2.265625 -4.390625 C 1.804688 -4.566406 1.410156 -4.84375 1.078125 -5.21875 C 0.742188 -5.601562 0.578125 -6.113281 0.578125 -6.75 C 0.578125 -7.3125 0.726562 -7.816406 1.03125 -8.265625 C 1.332031 -8.710938 1.785156 -9.066406 2.390625 -9.328125 C 2.992188 -9.597656 3.734375 -9.734375 4.609375 -9.734375 C 5.222656 -9.734375 5.820312 -9.660156 6.40625 -9.515625 C 6.988281 -9.367188 7.5 -9.160156 7.9375 -8.890625 L 7.25 -7.203125 C 6.363281 -7.703125 5.476562 -7.953125 4.59375 -7.953125 C 3.976562 -7.953125 3.519531 -7.851562 3.21875 -7.65625 C 2.925781 -7.457031 2.78125 -7.191406 2.78125 -6.859375 C 2.78125 -6.535156 2.945312 -6.289062 3.28125 -6.125 C 3.625 -5.96875 4.148438 -5.8125 4.859375 -5.65625 C 5.585938 -5.488281 6.179688 -5.316406 6.640625 -5.140625 C 7.109375 -4.960938 7.507812 -4.6875 7.84375 -4.3125 C 8.175781 -3.945312 8.34375 -3.441406 8.34375 -2.796875 C 8.34375 -2.253906 8.1875 -1.753906 7.875 -1.296875 C 7.570312 -0.847656 7.113281 -0.488281 6.5 -0.21875 C 5.894531 0.0390625 5.15625 0.171875 4.28125 0.171875 Z M 4.28125 0.171875 "/></g></g></g><g clip-path="url(#a74eb576c3)"><g clip-path="url(#26da790267)"><path fill="#09aa61" d="M 175.53125 178.746094 L 199.414062 178.746094 L 199.414062 202.628906 L 175.53125 202.628906 Z M 175.53125 178.746094 " fill-opacity="1" fill-rule="nonzero"/></g></g></svg>